<svg xmlns="http://www.w3.org/2000/svg" xmlns:xlink="http://www.w3.org/1999/xlink" width="1080" zoomAndPan="magnify" viewBox="0 0 810 809.999993" height="1080" preserveAspectRatio="xMidYMid meet" version="1.0"><path fill="#ffffff" d="M 404.730469 535.632812 C 279.523438 535.632812 177.65625 433.855469 177.65625 308.652344 C 177.65625 182.910156 279.523438 81.039062 404.730469 81.039062 C 529.933594 81.039062 632.25 182.910156 632.25 308.652344 C 632.25 433.855469 529.933594 535.632812 404.730469 535.632812 Z M 404.730469 96.65625 C 288.320312 96.65625 193.273438 191.703125 193.273438 308.652344 C 193.273438 424.96875 288.320312 520.105469 404.730469 520.105469 C 521.585938 520.105469 616.722656 424.96875 616.722656 308.652344 C 616.722656 191.703125 521.585938 96.65625 404.730469 96.65625 Z M 404.730469 454.585938 C 324.132812 454.585938 258.703125 389.160156 258.703125 308.652344 C 258.703125 228.054688 324.132812 162.625 404.730469 162.625 C 485.234375 162.625 550.664062 228.054688 550.664062 308.652344 C 550.664062 389.160156 485.234375 454.585938 404.730469 454.585938 Z M 404.730469 177.703125 C 332.476562 177.703125 274.320312 236.402344 274.320312 308.113281 C 274.320312 380.363281 333.015625 438.523438 404.730469 438.523438 C 476.890625 438.523438 535.136719 379.824219 535.136719 308.113281 C 535.136719 236.402344 476.890625 177.703125 404.730469 177.703125 Z M 404.730469 177.703125 " fill-opacity="1" fill-rule="evenodd"/><path fill="#ffffff" d="M 526.789062 249.863281 C 523.648438 249.863281 520.597656 247.800781 519.519531 245.195312 C 517.996094 241.070312 520.058594 236.941406 523.648438 234.875 L 599.042969 204.179688 C 603.167969 202.65625 607.296875 204.71875 609.453125 208.308594 C 610.976562 212.527344 608.914062 216.65625 605.234375 218.71875 L 529.933594 249.414062 C 528.855469 249.863281 527.867188 249.863281 526.789062 249.863281 Z M 470.695312 194.308594 C 469.617188 194.308594 468.632812 194.308594 467.554688 193.769531 C 463.425781 192.242188 461.902344 187.578125 463.425781 183.359375 L 494.03125 108.054688 C 495.648438 103.925781 500.3125 102.3125 504.441406 103.925781 C 508.660156 105.453125 510.1875 110.121094 508.660156 114.339844 L 477.964844 189.640625 C 476.890625 192.242188 473.835938 194.308594 470.695312 194.308594 Z M 470.695312 194.308594 " fill-opacity="1" fill-rule="evenodd"/><path fill="#ffffff" d="M 501.300781 513.285156 C 498.25 513.285156 495.109375 511.222656 494.03125 508.617188 L 463.425781 433.316406 C 461.902344 429.1875 463.964844 424.96875 467.554688 422.90625 C 471.773438 421.378906 475.902344 423.445312 477.964844 427.125 L 508.660156 502.425781 C 510.1875 506.554688 508.121094 510.773438 504.441406 512.835938 C 503.457031 513.285156 502.378906 513.285156 501.300781 513.285156 Z M 601.644531 412.496094 C 600.566406 412.496094 599.578125 412.496094 598.503906 412.046875 L 523.199219 381.351562 C 518.984375 379.824219 517.457031 375.15625 518.984375 370.9375 C 520.597656 366.8125 525.265625 365.285156 529.394531 366.8125 L 604.695312 397.953125 C 608.914062 399.570312 610.441406 404.238281 608.914062 408.367188 C 607.835938 410.96875 604.695312 412.496094 601.644531 412.496094 Z M 601.644531 412.496094 " fill-opacity="1" fill-rule="evenodd"/><path fill="#ffffff" d="M 308.066406 513.285156 C 306.988281 513.285156 306 513.285156 304.925781 512.835938 C 300.796875 511.222656 299.269531 506.554688 300.796875 502.425781 L 331.492188 427.125 C 333.015625 422.90625 337.683594 421.378906 341.8125 422.90625 C 346.03125 424.519531 347.558594 429.1875 346.03125 433.316406 L 315.335938 508.617188 C 314.257812 511.222656 311.207031 513.285156 308.066406 513.285156 Z M 207.8125 412.496094 C 204.671875 412.496094 201.53125 410.429688 200.542969 407.828125 C 198.929688 403.699219 200.992188 399.570312 204.671875 397.503906 L 279.972656 366.8125 C 284.191406 365.285156 288.320312 367.347656 290.386719 370.9375 C 292 375.15625 289.847656 379.285156 286.257812 381.351562 L 210.417969 412.046875 C 209.339844 412.496094 208.800781 412.496094 207.8125 412.496094 Z M 207.8125 412.496094 " fill-opacity="1" fill-rule="evenodd"/><path fill="#ffffff" d="M 283.113281 249.863281 C 282.128906 249.863281 281.050781 249.863281 279.972656 249.414062 L 204.671875 218.71875 C 200.542969 217.195312 198.929688 212.527344 200.542969 208.308594 C 202.070312 204.179688 206.734375 202.65625 210.863281 204.179688 L 286.257812 234.875 C 290.386719 236.402344 292 241.070312 290.386719 245.195312 C 289.398438 248.339844 286.257812 249.863281 283.113281 249.863281 Z M 338.761719 194.308594 C 335.621094 194.308594 332.476562 192.242188 331.492188 189.640625 L 300.796875 114.339844 C 299.269531 110.121094 301.335938 105.992188 304.925781 103.925781 C 309.144531 102.3125 313.273438 104.464844 315.335938 108.054688 L 346.03125 183.359375 C 347.558594 187.578125 345.492188 191.703125 341.8125 193.769531 C 340.824219 194.308594 339.75 194.308594 338.761719 194.308594 Z M 338.761719 194.308594 " fill-opacity="1" fill-rule="evenodd"/><path fill="#ffffff" d="M 198.480469 242.144531 C 195.875 242.144531 193.273438 240.53125 191.65625 237.925781 C 183.402344 222.847656 179.722656 206.785156 179.722656 190.179688 C 179.722656 135.070312 224.417969 90.375 279.523438 90.375 C 293.527344 90.375 307.527344 93.515625 321.078125 99.710938 C 325.207031 101.324219 326.734375 105.992188 325.207031 110.121094 C 323.683594 114.339844 319.015625 115.863281 314.796875 114.339844 C 303.398438 109.132812 291.460938 106.53125 279.523438 106.53125 C 232.765625 105.992188 194.800781 143.957031 194.800781 190.179688 C 194.800781 204.179688 198.480469 218.183594 205.210938 230.65625 C 207.273438 234.335938 205.75 239.003906 202.070312 241.070312 C 200.992188 242.144531 199.464844 242.144531 198.480469 242.144531 Z M 198.480469 242.144531 " fill-opacity="1" fill-rule="evenodd"/><path fill="#ffffff" d="M 611.515625 242.144531 C 610.441406 242.144531 608.914062 241.605469 607.835938 241.070312 C 604.246094 239.003906 602.632812 234.335938 604.695312 230.65625 C 611.515625 218.183594 615.105469 204.71875 615.105469 190.179688 C 615.105469 143.957031 577.230469 105.992188 530.917969 105.992188 C 518.984375 105.992188 507.046875 108.59375 495.648438 113.800781 C 491.519531 115.328125 487.300781 113.800781 485.234375 109.582031 C 483.171875 105.453125 485.234375 101.324219 489.363281 99.261719 C 502.917969 92.976562 516.917969 89.835938 530.917969 89.835938 C 586.027344 89.835938 630.722656 134.53125 630.722656 189.640625 C 630.722656 206.246094 626.59375 222.398438 618.785156 237.476562 C 617.171875 240.53125 614.121094 242.144531 611.515625 242.144531 Z M 611.515625 242.144531 " fill-opacity="1" fill-rule="evenodd"/><path fill="#ffffff" d="M 278.988281 526.300781 C 223.878906 526.300781 179.183594 481.15625 179.183594 426.046875 C 179.183594 408.902344 183.402344 393.289062 191.121094 378.210938 C 193.273438 374.617188 197.941406 373.003906 201.53125 375.15625 C 205.210938 377.222656 206.734375 381.890625 204.671875 385.480469 C 197.941406 397.953125 194.261719 411.507812 194.261719 426.046875 C 194.261719 472.269531 232.226562 510.234375 278.449219 510.234375 C 290.921875 510.234375 302.859375 507.632812 313.808594 502.425781 C 317.398438 500.359375 322.066406 502.425781 324.132812 506.015625 C 326.285156 509.695312 324.132812 514.363281 320.542969 516.425781 C 308.066406 522.710938 294.066406 526.300781 278.988281 526.300781 Z M 278.988281 526.300781 " fill-opacity="1" fill-rule="evenodd"/><path fill="#ffffff" d="M 530.917969 526.300781 C 515.929688 526.300781 501.839844 523.15625 488.914062 516.964844 C 485.234375 514.902344 483.171875 510.234375 485.234375 506.554688 C 487.300781 502.964844 491.96875 500.898438 495.648438 502.964844 C 506.507812 508.167969 517.996094 510.773438 530.917969 510.773438 C 577.230469 510.773438 615.105469 472.808594 615.105469 426.585938 C 615.105469 412.496094 611.515625 398.492188 604.695312 386.015625 C 602.632812 382.425781 604.246094 377.761719 607.835938 375.605469 C 611.515625 373.542969 616.183594 375.15625 618.246094 378.746094 C 626.59375 393.824219 630.183594 409.890625 630.183594 426.585938 C 630.722656 481.15625 586.027344 526.300781 530.917969 526.300781 Z M 530.917969 526.300781 " fill-opacity="1" fill-rule="evenodd"/><path fill="#ffffff" d="M 201.53125 605.28125 C 184.386719 605.28125 166.707031 601.691406 149.5625 592.265625 C 145.972656 590.203125 144.359375 585.535156 146.511719 581.945312 C 148.578125 578.265625 153.246094 576.738281 156.835938 578.804688 C 192.195312 598.550781 228.007812 588.675781 265.972656 577.726562 C 304.925781 566.867188 345.492188 555.917969 386.507812 578.265625 C 429.679688 598.011719 472.222656 588.136719 517.996094 577.726562 C 564.21875 566.867188 612.054688 555.917969 660.339844 578.265625 C 664.46875 580.328125 666.085938 584.546875 663.933594 588.675781 C 661.867188 592.804688 657.738281 594.421875 653.609375 592.265625 C 610.441406 572.074219 567.359375 581.945312 521.585938 592.804688 C 475.363281 603.753906 428.0625 614.613281 379.777344 592.265625 C 379.777344 592.265625 379.238281 592.265625 379.238281 591.816406 C 343.429688 572.074219 308.066406 581.945312 270.101562 592.265625 C 247.304688 599.089844 224.417969 605.28125 201.53125 605.28125 Z M 201.53125 605.28125 " fill-opacity="1" fill-rule="evenodd"/><path fill="#ffffff" d="M 201.53125 662.453125 C 184.386719 662.453125 166.707031 658.773438 149.117188 648.902344 C 145.4375 646.835938 143.910156 642.167969 145.972656 638.578125 C 148.039062 634.898438 152.707031 633.375 156.386719 635.4375 C 192.195312 655.183594 227.558594 645.308594 265.433594 634.898438 C 304.386719 624.039062 344.953125 613.089844 385.96875 635.4375 C 429.140625 655.722656 472.222656 645.308594 517.996094 634.898438 C 564.21875 624.039062 611.515625 613.089844 659.804688 635.4375 C 663.933594 636.964844 665.546875 641.628906 663.484375 645.847656 C 661.867188 649.976562 657.199219 651.503906 653.070312 649.4375 C 609.902344 629.695312 566.820312 639.566406 521.585938 649.976562 C 475.363281 660.925781 427.527344 671.785156 379.238281 649.4375 C 379.238281 649.4375 378.699219 649.4375 378.699219 649.4375 C 343.429688 629.695312 307.527344 639.566406 269.652344 650.515625 C 247.753906 655.722656 224.957031 662.453125 201.53125 662.453125 Z M 201.53125 662.453125 " fill-opacity="1" fill-rule="evenodd"/><path fill="#ffffff" d="M 201.53125 719.625 C 184.386719 719.625 166.707031 715.945312 149.117188 706.070312 C 145.4375 704.007812 143.910156 699.339844 145.972656 695.660156 C 148.039062 692.070312 152.707031 690.546875 156.386719 692.609375 C 191.65625 712.355469 227.558594 702.480469 265.433594 692.070312 C 304.386719 681.121094 344.953125 669.722656 385.96875 692.609375 C 429.140625 712.804688 472.222656 702.480469 517.457031 692.070312 C 563.679688 681.121094 611.515625 670.261719 659.265625 692.609375 C 663.484375 694.671875 665.007812 698.800781 662.945312 702.929688 C 660.878906 707.148438 656.660156 708.675781 652.535156 706.609375 C 609.453125 686.328125 566.28125 696.738281 520.597656 707.148438 C 474.285156 718.007812 426.539062 728.957031 378.699219 706.609375 C 378.699219 706.609375 378.25 706.609375 378.25 706.609375 C 342.890625 686.867188 306.988281 696.738281 269.113281 707.148438 C 247.753906 712.804688 224.957031 719.625 201.53125 719.625 Z M 201.53125 719.625 " fill-opacity="1" fill-rule="evenodd"/></svg>