<svg xmlns="http://www.w3.org/2000/svg" xmlns:xlink="http://www.w3.org/1999/xlink" width="1080" zoomAndPan="magnify" viewBox="0 0 810 809.999993" height="1080" preserveAspectRatio="xMidYMid meet" version="1.0"><path fill="#ffffff" d="M 621 243 C 621 153.53125 548.46875 81 459 81 C 369.53125 81 297 153.53125 297 243 C 297 332.46875 369.53125 405 459 405 C 548.433594 404.910156 620.910156 332.433594 621 243 Z M 351 243 C 351 183.351562 399.351562 135 459 135 C 518.648438 135 567 183.351562 567 243 C 567 302.648438 518.648438 351 459 351 C 399.351562 351 351 302.648438 351 243 Z M 351 243 " fill-opacity="1" fill-rule="nonzero"/><path fill="#ffffff" d="M 540 459 L 378 459 C 273.667969 459.117188 189.117188 543.667969 189 648 L 189 702 C 189 716.910156 201.089844 729 216 729 C 230.910156 729 243 716.910156 243 702 L 243 648 C 243.089844 573.480469 303.480469 513.089844 378 513 L 540 513 C 614.519531 513.089844 674.910156 573.480469 675 648 L 675 702 C 675 716.910156 687.089844 729 702 729 C 716.910156 729 729 716.910156 729 702 L 729 648 C 728.882812 543.667969 644.332031 459.117188 540 459 Z M 540 459 " fill-opacity="1" fill-rule="nonzero"/><path fill="#ffffff" d="M 189 270 C 174.089844 270 162 282.089844 162 297 L 162 351 L 108 351 C 93.089844 351 81 363.089844 81 378 C 81 392.910156 93.089844 405 108 405 L 162 405 L 162 459 C 162 473.910156 174.089844 486 189 486 C 203.910156 486 216 473.910156 216 459 L 216 405 L 270 405 C 284.910156 405 297 392.910156 297 378 C 297 363.089844 284.910156 351 270 351 L 216 351 L 216 297 C 216 282.089844 203.910156 270 189 270 Z M 189 270 " fill-opacity="1" fill-rule="nonzero"/></svg>