<svg xmlns="http://www.w3.org/2000/svg" xmlns:xlink="http://www.w3.org/1999/xlink" width="1080" zoomAndPan="magnify" viewBox="0 0 810 809.999993" height="1080" preserveAspectRatio="xMidYMid meet" version="1.0"><defs><clipPath id="48a4115456"><path d="M 80.523438 81 L 728.523438 81 L 728.523438 729 L 80.523438 729 Z M 80.523438 81 " clip-rule="nonzero"/></clipPath></defs><path fill="#ffffff" d="M 358.484375 530.660156 L 242.601562 414.933594 L 275.398438 382.140625 L 358.484375 465.226562 L 534.28125 289.433594 L 566.917969 322.226562 Z M 358.484375 530.660156 " fill-opacity="1" fill-rule="nonzero"/><g clip-path="url(#48a4115456)"><path fill="#ffffff" d="M 404.839844 81 C 399.53125 81 394.226562 81.128906 388.925781 81.390625 C 383.625 81.652344 378.332031 82.042969 373.050781 82.5625 C 367.769531 83.082031 362.503906 83.730469 357.253906 84.511719 C 352.003906 85.289062 346.773438 86.195312 341.570312 87.230469 C 336.363281 88.265625 331.1875 89.429688 326.035156 90.71875 C 320.886719 92.007812 315.773438 93.425781 310.695312 94.964844 C 305.617188 96.503906 300.578125 98.171875 295.582031 99.957031 C 290.582031 101.746094 285.632812 103.65625 280.730469 105.6875 C 275.824219 107.71875 270.976562 109.867188 266.175781 112.136719 C 261.378906 114.40625 256.640625 116.792969 251.957031 119.292969 C 247.277344 121.796875 242.660156 124.414062 238.109375 127.140625 C 233.554688 129.871094 229.074219 132.707031 224.660156 135.65625 C 220.246094 138.605469 215.90625 141.660156 211.644531 144.824219 C 207.382812 147.984375 203.199219 151.25 199.097656 154.617188 C 194.992188 157.984375 190.976562 161.449219 187.042969 165.011719 C 183.109375 168.578125 179.265625 172.238281 175.511719 175.988281 C 171.761719 179.742188 168.101562 183.585938 164.539062 187.519531 C 160.972656 191.453125 157.507812 195.46875 154.140625 199.570312 C 150.773438 203.675781 147.507812 207.859375 144.347656 212.121094 C 141.183594 216.382812 138.128906 220.722656 135.179688 225.136719 C 132.230469 229.546875 129.394531 234.03125 126.664062 238.582031 C 123.9375 243.136719 121.320312 247.753906 118.820312 252.433594 C 116.316406 257.113281 113.929688 261.855469 111.660156 266.652344 C 109.390625 271.449219 107.242188 276.300781 105.210938 281.207031 C 103.179688 286.109375 101.269531 291.058594 99.480469 296.058594 C 97.695312 301.054688 96.03125 306.09375 94.488281 311.171875 C 92.949219 316.25 91.53125 321.363281 90.242188 326.511719 C 88.953125 331.660156 87.789062 336.839844 86.753906 342.042969 C 85.71875 347.25 84.8125 352.476562 84.035156 357.726562 C 83.253906 362.980469 82.605469 368.246094 82.085938 373.527344 C 81.566406 378.808594 81.175781 384.101562 80.914062 389.402344 C 80.652344 394.703125 80.523438 400.007812 80.523438 405.316406 C 80.523438 410.621094 80.652344 415.925781 80.914062 421.230469 C 81.175781 426.53125 81.566406 431.820312 82.085938 437.105469 C 82.605469 442.386719 83.253906 447.652344 84.035156 452.902344 C 84.8125 458.152344 85.71875 463.378906 86.753906 468.585938 C 87.789062 473.792969 88.953125 478.96875 90.242188 484.117188 C 91.53125 489.265625 92.949219 494.378906 94.488281 499.460938 C 96.03125 504.539062 97.695312 509.578125 99.480469 514.574219 C 101.269531 519.570312 103.179688 524.523438 105.210938 529.425781 C 107.242188 534.328125 109.390625 539.179688 111.660156 543.976562 C 113.929688 548.777344 116.316406 553.515625 118.820312 558.195312 C 121.320312 562.878906 123.9375 567.496094 126.664062 572.046875 C 129.394531 576.597656 132.230469 581.082031 135.179688 585.496094 C 138.128906 589.910156 141.183594 594.246094 144.347656 598.507812 C 147.507812 602.773438 150.773438 606.957031 154.140625 611.058594 C 157.507812 615.160156 160.972656 619.179688 164.539062 623.113281 C 168.101562 627.042969 171.761719 630.886719 175.511719 634.640625 C 179.265625 638.394531 183.109375 642.050781 187.042969 645.617188 C 190.976562 649.179688 194.992188 652.648438 199.097656 656.015625 C 203.199219 659.382812 207.382812 662.644531 211.644531 665.808594 C 215.90625 668.96875 220.246094 672.023438 224.660156 674.972656 C 229.074219 677.921875 233.554688 680.761719 238.109375 683.488281 C 242.660156 686.21875 247.277344 688.832031 251.957031 691.335938 C 256.640625 693.835938 261.378906 696.222656 266.175781 698.492188 C 270.976562 700.761719 275.824219 702.914062 280.730469 704.945312 C 285.632812 706.976562 290.582031 708.882812 295.582031 710.671875 C 300.578125 712.460938 305.617188 714.125 310.695312 715.664062 C 315.773438 717.207031 320.886719 718.621094 326.035156 719.910156 C 331.1875 721.199219 336.363281 722.363281 341.570312 723.398438 C 346.773438 724.433594 352.003906 725.339844 357.253906 726.121094 C 362.503906 726.898438 367.769531 727.546875 373.050781 728.070312 C 378.332031 728.589844 383.625 728.980469 388.925781 729.238281 C 394.226562 729.5 399.53125 729.628906 404.839844 729.628906 C 410.148438 729.628906 415.453125 729.5 420.753906 729.238281 C 426.054688 728.980469 431.34375 728.589844 436.628906 728.070312 C 441.910156 727.546875 447.175781 726.898438 452.425781 726.121094 C 457.675781 725.339844 462.90625 724.433594 468.109375 723.398438 C 473.316406 722.363281 478.492188 721.199219 483.640625 719.910156 C 488.789062 718.621094 493.902344 717.207031 498.984375 715.664062 C 504.0625 714.125 509.101562 712.460938 514.097656 710.671875 C 519.09375 708.882812 524.046875 706.976562 528.949219 704.945312 C 533.851562 702.914062 538.703125 700.761719 543.5 698.492188 C 548.300781 696.222656 553.039062 693.835938 557.71875 691.335938 C 562.402344 688.832031 567.019531 686.21875 571.570312 683.488281 C 576.125 680.761719 580.605469 677.921875 585.019531 674.972656 C 589.433594 672.023438 593.769531 668.96875 598.035156 665.808594 C 602.296875 662.644531 606.480469 659.382812 610.582031 656.015625 C 614.6875 652.648438 618.703125 649.179688 622.636719 645.617188 C 626.570312 642.050781 630.410156 638.394531 634.164062 634.640625 C 637.917969 630.886719 641.578125 627.042969 645.140625 623.113281 C 648.707031 619.179688 652.171875 615.160156 655.539062 611.058594 C 658.90625 606.957031 662.171875 602.773438 665.332031 598.507812 C 668.492188 594.246094 671.546875 589.910156 674.496094 585.496094 C 677.445312 581.082031 680.285156 576.597656 683.015625 572.046875 C 685.742188 567.492188 688.359375 562.878906 690.859375 558.195312 C 693.363281 553.515625 695.746094 548.777344 698.015625 543.976562 C 700.285156 539.179688 702.4375 534.328125 704.46875 529.425781 C 706.5 524.523438 708.410156 519.570312 710.195312 514.574219 C 711.984375 509.578125 713.648438 504.539062 715.191406 499.460938 C 716.730469 494.378906 718.144531 489.265625 719.433594 484.117188 C 720.726562 478.96875 721.886719 473.792969 722.921875 468.585938 C 723.957031 463.378906 724.867188 458.152344 725.644531 452.902344 C 726.421875 447.652344 727.074219 442.386719 727.59375 437.105469 C 728.113281 431.820312 728.503906 426.53125 728.765625 421.230469 C 729.023438 415.925781 729.15625 410.621094 729.15625 405.316406 C 729.15625 400.007812 729.023438 394.703125 728.765625 389.402344 C 728.503906 384.101562 728.113281 378.808594 727.59375 373.527344 C 727.074219 368.246094 726.421875 362.980469 725.644531 357.726562 C 724.867188 352.476562 723.957031 347.25 722.921875 342.042969 C 721.886719 336.839844 720.726562 331.660156 719.433594 326.511719 C 718.144531 321.363281 716.730469 316.25 715.191406 311.171875 C 713.648438 306.09375 711.984375 301.054688 710.195312 296.058594 C 708.40625 291.058594 706.5 286.109375 704.46875 281.207031 C 702.4375 276.300781 700.285156 271.449219 698.015625 266.652344 C 695.746094 261.855469 693.363281 257.113281 690.859375 252.433594 C 688.359375 247.753906 685.742188 243.136719 683.011719 238.582031 C 680.285156 234.03125 677.445312 229.546875 674.496094 225.136719 C 671.546875 220.722656 668.492188 216.382812 665.332031 212.121094 C 662.167969 207.859375 658.90625 203.675781 655.539062 199.570312 C 652.171875 195.46875 648.707031 191.453125 645.140625 187.519531 C 641.578125 183.585938 637.917969 179.742188 634.164062 175.988281 C 630.410156 172.238281 626.570312 168.578125 622.636719 165.011719 C 618.703125 161.449219 614.683594 157.984375 610.582031 154.617188 C 606.480469 151.25 602.296875 147.984375 598.035156 144.824219 C 593.769531 141.660156 589.433594 138.605469 585.019531 135.65625 C 580.605469 132.707031 576.125 129.871094 571.570312 127.140625 C 567.019531 124.414062 562.402344 121.796875 557.71875 119.292969 C 553.039062 116.792969 548.300781 114.40625 543.5 112.136719 C 538.703125 109.867188 533.851562 107.71875 528.949219 105.6875 C 524.046875 103.65625 519.09375 101.746094 514.097656 99.957031 C 509.101562 98.171875 504.0625 96.503906 498.984375 94.964844 C 493.902344 93.425781 488.789062 92.007812 483.640625 90.71875 C 478.492188 89.429688 473.316406 88.265625 468.109375 87.230469 C 462.90625 86.195312 457.675781 85.289062 452.425781 84.511719 C 447.175781 83.730469 441.910156 83.082031 436.628906 82.5625 C 431.34375 82.042969 426.054688 81.652344 420.753906 81.390625 C 415.453125 81.128906 410.148438 81 404.839844 81 Z M 404.839844 683.277344 C 400.289062 683.277344 395.742188 683.164062 391.199219 682.941406 C 386.65625 682.71875 382.121094 682.386719 377.59375 681.9375 C 373.066406 681.492188 368.554688 680.9375 364.054688 680.269531 C 359.554688 679.601562 355.074219 678.824219 350.613281 677.9375 C 346.148438 677.050781 341.710938 676.050781 337.300781 674.945312 C 332.886719 673.84375 328.503906 672.628906 324.152344 671.308594 C 319.796875 669.988281 315.480469 668.5625 311.195312 667.027344 C 306.914062 665.496094 302.671875 663.859375 298.46875 662.117188 C 294.265625 660.378906 290.109375 658.535156 285.996094 656.589844 C 281.882812 654.644531 277.820312 652.601562 273.808594 650.457031 C 269.796875 648.3125 265.839844 646.070312 261.9375 643.730469 C 258.035156 641.394531 254.195312 638.960938 250.410156 636.433594 C 246.628906 633.90625 242.910156 631.285156 239.257812 628.578125 C 235.605469 625.867188 232.019531 623.070312 228.503906 620.183594 C 224.984375 617.296875 221.542969 614.328125 218.171875 611.273438 C 214.800781 608.214844 211.507812 605.082031 208.289062 601.863281 C 205.074219 598.648438 201.9375 595.355469 198.882812 591.984375 C 195.828125 588.613281 192.859375 585.167969 189.972656 581.652344 C 187.085938 578.136719 184.289062 574.550781 181.578125 570.898438 C 178.867188 567.242188 176.25 563.523438 173.722656 559.742188 C 171.195312 555.960938 168.761719 552.117188 166.421875 548.214844 C 164.085938 544.316406 161.84375 540.359375 159.699219 536.347656 C 157.554688 532.332031 155.507812 528.273438 153.566406 524.160156 C 151.621094 520.046875 149.777344 515.890625 148.035156 511.6875 C 146.296875 507.484375 144.660156 503.242188 143.125 498.957031 C 141.59375 494.675781 140.167969 490.355469 138.847656 486.003906 C 137.527344 481.648438 136.3125 477.265625 135.207031 472.855469 C 134.101562 468.441406 133.105469 464.003906 132.21875 459.542969 C 131.332031 455.082031 130.554688 450.601562 129.886719 446.101562 C 129.21875 441.601562 128.660156 437.085938 128.214844 432.558594 C 127.769531 428.035156 127.433594 423.496094 127.210938 418.953125 C 126.988281 414.410156 126.878906 409.863281 126.878906 405.316406 C 126.878906 400.765625 126.988281 396.21875 127.210938 391.675781 C 127.433594 387.132812 127.769531 382.597656 128.214844 378.070312 C 128.660156 373.542969 129.21875 369.03125 129.886719 364.53125 C 130.554688 360.03125 131.332031 355.550781 132.21875 351.085938 C 133.105469 346.625 134.101562 342.1875 135.207031 337.777344 C 136.3125 333.363281 137.527344 328.980469 138.847656 324.628906 C 140.167969 320.273438 141.59375 315.957031 143.125 311.671875 C 144.660156 307.390625 146.296875 303.148438 148.035156 298.945312 C 149.777344 294.742188 151.621094 290.582031 153.566406 286.472656 C 155.507812 282.359375 157.554688 278.296875 159.699219 274.285156 C 161.84375 270.273438 164.085938 266.316406 166.421875 262.414062 C 168.761719 258.511719 171.195312 254.671875 173.722656 250.886719 C 176.25 247.105469 178.867188 243.386719 181.578125 239.734375 C 184.289062 236.078125 187.085938 232.496094 189.972656 228.976562 C 192.859375 225.460938 195.828125 222.019531 198.882812 218.648438 C 201.9375 215.277344 205.074219 211.984375 208.289062 208.765625 C 211.507812 205.550781 214.800781 202.414062 218.171875 199.359375 C 221.542969 196.304688 224.984375 193.332031 228.503906 190.449219 C 232.019531 187.5625 235.605469 184.765625 239.257812 182.054688 C 242.910156 179.34375 246.628906 176.726562 250.410156 174.199219 C 254.195312 171.671875 258.035156 169.238281 261.9375 166.898438 C 265.839844 164.5625 269.796875 162.320312 273.808594 160.175781 C 277.820312 158.03125 281.882812 155.984375 285.996094 154.039062 C 290.109375 152.097656 294.265625 150.253906 298.46875 148.511719 C 302.671875 146.769531 306.914062 145.132812 311.195312 143.601562 C 315.480469 142.070312 319.796875 140.644531 324.152344 139.324219 C 328.503906 138 332.886719 136.789062 337.300781 135.683594 C 341.710938 134.578125 346.148438 133.582031 350.613281 132.695312 C 355.074219 131.808594 359.554688 131.03125 364.054688 130.363281 C 368.554688 129.695312 373.066406 129.136719 377.59375 128.691406 C 382.121094 128.246094 386.65625 127.910156 391.199219 127.6875 C 395.742188 127.464844 400.289062 127.351562 404.839844 127.351562 C 409.386719 127.351562 413.933594 127.464844 418.476562 127.6875 C 423.023438 127.910156 427.558594 128.246094 432.085938 128.691406 C 436.613281 129.136719 441.125 129.695312 445.625 130.363281 C 450.125 131.03125 454.605469 131.808594 459.066406 132.695312 C 463.527344 133.582031 467.964844 134.578125 472.378906 135.683594 C 476.792969 136.789062 481.175781 138 485.527344 139.324219 C 489.878906 140.644531 494.199219 142.070312 498.480469 143.601562 C 502.765625 145.132812 507.007812 146.769531 511.210938 148.511719 C 515.414062 150.253906 519.570312 152.097656 523.683594 154.039062 C 527.796875 155.984375 531.859375 158.03125 535.871094 160.175781 C 539.882812 162.320312 543.839844 164.5625 547.742188 166.898438 C 551.640625 169.238281 555.484375 171.671875 559.265625 174.199219 C 563.050781 176.726562 566.765625 179.34375 570.421875 182.054688 C 574.074219 184.765625 577.660156 187.5625 581.175781 190.449219 C 584.691406 193.332031 588.136719 196.304688 591.507812 199.359375 C 594.878906 202.414062 598.171875 205.550781 601.386719 208.765625 C 604.605469 211.984375 607.742188 215.277344 610.796875 218.648438 C 613.851562 222.019531 616.820312 225.460938 619.707031 228.976562 C 622.59375 232.496094 625.390625 236.078125 628.101562 239.734375 C 630.808594 243.386719 633.429688 247.105469 635.957031 250.886719 C 638.484375 254.671875 640.917969 258.511719 643.253906 262.414062 C 645.59375 266.316406 647.835938 270.273438 649.980469 274.285156 C 652.125 278.296875 654.167969 282.359375 656.113281 286.472656 C 658.058594 290.582031 659.902344 294.742188 661.644531 298.945312 C 663.382812 303.148438 665.019531 307.390625 666.550781 311.671875 C 668.085938 315.957031 669.511719 320.273438 670.832031 324.628906 C 672.152344 328.980469 673.367188 333.363281 674.472656 337.777344 C 675.578125 342.1875 676.574219 346.625 677.460938 351.085938 C 678.347656 355.550781 679.125 360.03125 679.792969 364.53125 C 680.460938 369.03125 681.015625 373.542969 681.460938 378.070312 C 681.910156 382.597656 682.242188 387.132812 682.464844 391.675781 C 682.691406 396.21875 682.800781 400.765625 682.800781 405.316406 C 682.800781 409.863281 682.691406 414.410156 682.464844 418.953125 C 682.242188 423.496094 681.910156 428.035156 681.460938 432.558594 C 681.015625 437.085938 680.460938 441.601562 679.792969 446.101562 C 679.125 450.601562 678.347656 455.082031 677.460938 459.542969 C 676.574219 464.003906 675.578125 468.441406 674.472656 472.855469 C 673.367188 477.265625 672.152344 481.648438 670.832031 486.003906 C 669.511719 490.355469 668.085938 494.675781 666.550781 498.957031 C 665.019531 503.242188 663.382812 507.484375 661.644531 511.6875 C 659.902344 515.890625 658.058594 520.046875 656.113281 524.160156 C 654.167969 528.273438 652.125 532.332031 649.980469 536.347656 C 647.835938 540.359375 645.59375 544.316406 643.253906 548.214844 C 640.917969 552.117188 638.484375 555.960938 635.957031 559.742188 C 633.429688 563.523438 630.808594 567.242188 628.101562 570.898438 C 625.390625 574.550781 622.59375 578.136719 619.707031 581.652344 C 616.820312 585.167969 613.851562 588.613281 610.796875 591.984375 C 607.742188 595.355469 604.605469 598.648438 601.386719 601.863281 C 598.171875 605.082031 594.878906 608.214844 591.507812 611.273438 C 588.136719 614.328125 584.691406 617.296875 581.175781 620.183594 C 577.660156 623.070312 574.074219 625.867188 570.421875 628.578125 C 566.765625 631.285156 563.050781 633.90625 559.265625 636.433594 C 555.484375 638.960938 551.640625 641.394531 547.742188 643.730469 C 543.839844 646.070312 539.882812 648.3125 535.871094 650.457031 C 531.859375 652.601562 527.796875 654.644531 523.683594 656.589844 C 519.570312 658.535156 515.414062 660.378906 511.210938 662.117188 C 507.007812 663.859375 502.765625 665.496094 498.480469 667.027344 C 494.199219 668.5625 489.878906 669.988281 485.527344 671.308594 C 481.175781 672.628906 476.792969 673.84375 472.378906 674.945312 C 467.964844 676.050781 463.527344 677.050781 459.066406 677.9375 C 454.605469 678.824219 450.125 679.601562 445.625 680.269531 C 441.125 680.9375 436.613281 681.492188 432.085938 681.9375 C 427.558594 682.386719 423.023438 682.71875 418.476562 682.941406 C 413.933594 683.164062 409.386719 683.277344 404.839844 683.277344 Z M 404.839844 683.277344 " fill-opacity="1" fill-rule="nonzero"/></g></svg>