<svg xmlns="http://www.w3.org/2000/svg" xmlns:xlink="http://www.w3.org/1999/xlink" width="1080" zoomAndPan="magnify" viewBox="0 0 810 809.999993" height="1080" preserveAspectRatio="xMidYMid meet" version="1.0"><path fill="#ffffff" d="M 678.667969 337.410156 L 664.804688 337.410156 C 657.117188 337.410156 650.335938 332.4375 647.925781 325.207031 C 643.855469 313 639.035156 301.09375 633.15625 289.792969 C 629.691406 282.859375 630.894531 274.570312 636.472656 268.996094 L 646.417969 259.050781 C 666.007812 239.457031 666.007812 207.359375 646.417969 187.769531 L 622.003906 163.65625 C 602.414062 144.066406 570.464844 144.066406 550.726562 163.65625 L 540.777344 173.605469 C 535.351562 179.027344 526.914062 180.386719 520.132812 176.917969 C 508.832031 171.191406 496.925781 166.21875 484.71875 162.152344 C 477.335938 159.738281 472.511719 152.957031 472.511719 145.273438 L 472.511719 131.410156 C 472.511719 103.679688 449.90625 81.074219 422.179688 81.074219 L 387.972656 81.074219 C 360.242188 81.074219 337.636719 103.679688 337.636719 131.410156 L 337.636719 145.273438 C 337.636719 152.957031 332.664062 159.738281 325.429688 162.152344 C 313.226562 166.21875 301.320312 171.042969 290.019531 176.917969 C 283.085938 180.386719 274.796875 179.179688 269.222656 173.605469 L 259.273438 163.65625 C 239.683594 144.066406 207.585938 144.066406 187.996094 163.65625 L 163.734375 187.921875 C 144.140625 207.511719 144.140625 239.609375 163.734375 259.199219 L 173.679688 269.144531 C 179.105469 274.570312 180.460938 282.859375 176.996094 289.792969 C 171.269531 301.09375 166.292969 313 162.226562 325.207031 C 159.816406 332.589844 153.035156 337.414062 145.347656 337.414062 L 131.484375 337.414062 C 103.605469 337.410156 81 360.015625 81 387.894531 L 81 422.105469 C 81 449.832031 103.605469 472.4375 131.332031 472.4375 L 145.195312 472.4375 C 152.882812 472.4375 159.664062 477.410156 162.074219 484.644531 C 166.144531 496.851562 170.964844 508.753906 176.84375 520.058594 C 180.308594 526.988281 179.105469 535.277344 173.527344 540.855469 L 163.582031 550.800781 C 143.992188 570.390625 143.992188 602.488281 163.582031 622.078125 L 187.996094 646.191406 C 207.585938 665.78125 239.535156 665.78125 259.273438 646.191406 L 269.222656 636.246094 C 274.648438 630.820312 283.085938 629.464844 289.867188 632.929688 C 301.167969 638.65625 313.074219 643.628906 325.28125 647.699219 C 332.664062 650.109375 337.488281 656.890625 337.488281 664.578125 L 337.488281 678.589844 C 337.488281 706.320312 360.09375 728.925781 387.820312 728.925781 L 422.027344 728.925781 C 449.757812 728.925781 472.363281 706.320312 472.363281 678.589844 L 472.363281 664.578125 C 472.363281 656.890625 477.335938 650.109375 484.570312 647.699219 C 496.773438 643.628906 508.679688 638.808594 519.980469 632.929688 C 526.914062 629.464844 535.203125 630.667969 540.777344 636.246094 L 550.726562 646.191406 C 570.316406 665.78125 602.414062 665.78125 622.003906 646.191406 L 646.265625 621.929688 C 665.859375 602.339844 665.859375 570.238281 646.265625 550.648438 L 636.320312 540.703125 C 630.894531 535.277344 629.539062 526.988281 633.003906 520.058594 C 638.730469 508.753906 643.707031 496.851562 647.773438 484.644531 C 650.183594 477.257812 656.964844 472.4375 664.652344 472.4375 L 678.515625 472.4375 C 706.246094 472.4375 728.847656 449.832031 728.847656 422.105469 L 728.847656 387.894531 C 729 360.015625 706.394531 337.410156 678.667969 337.410156 Z M 696.601562 421.953125 C 696.601562 431.898438 688.460938 439.886719 678.667969 439.886719 L 664.804688 439.886719 C 643.101562 439.886719 623.964844 453.75 617.183594 474.394531 C 613.714844 484.945312 609.347656 495.34375 604.371094 505.289062 C 594.578125 524.730469 598.195312 548.085938 613.566406 563.609375 L 623.511719 573.554688 C 630.59375 580.636719 630.59375 591.941406 623.511719 599.023438 L 599.25 623.285156 C 592.167969 630.367188 580.714844 630.21875 573.78125 623.285156 L 563.835938 613.339844 C 548.464844 597.96875 525.105469 594.199219 505.515625 604.148438 C 495.570312 609.121094 485.320312 613.492188 474.621094 616.957031 C 453.976562 623.738281 440.113281 642.875 440.113281 664.578125 L 440.113281 678.589844 C 440.113281 688.539062 431.976562 696.523438 422.179688 696.523438 L 387.972656 696.523438 C 378.023438 696.523438 370.039062 688.386719 370.039062 678.589844 L 370.039062 664.578125 C 370.039062 642.875 356.175781 623.738281 335.527344 616.957031 C 324.980469 613.492188 314.582031 609.121094 304.636719 604.148438 C 297.402344 600.53125 289.566406 598.722656 281.878906 598.722656 C 268.921875 598.722656 256.109375 603.84375 246.464844 613.488281 L 236.519531 623.4375 C 229.4375 630.367188 218.136719 630.519531 211.050781 623.4375 L 186.789062 599.175781 C 179.707031 592.089844 179.707031 580.789062 186.789062 573.707031 L 196.734375 563.761719 C 212.105469 548.390625 215.875 525.03125 205.929688 505.441406 C 200.957031 495.492188 196.585938 485.246094 193.117188 474.546875 C 186.335938 453.902344 167.199219 440.039062 145.5 440.039062 L 131.632812 440.039062 C 121.6875 440.039062 113.703125 431.898438 113.703125 422.105469 L 113.703125 387.894531 C 113.703125 377.949219 121.839844 369.960938 131.632812 369.960938 L 145.5 369.960938 C 167.199219 369.960938 186.335938 356.097656 193.117188 335.453125 C 196.585938 324.902344 200.957031 314.507812 205.929688 304.558594 C 215.722656 285.121094 212.105469 261.761719 196.734375 246.238281 L 186.789062 236.292969 C 179.707031 229.210938 179.707031 217.910156 186.789062 210.824219 L 211.050781 186.5625 C 218.136719 179.480469 229.4375 179.480469 236.519531 186.5625 L 246.464844 196.511719 C 261.835938 211.882812 285.347656 215.648438 304.785156 205.703125 C 314.730469 200.730469 324.980469 196.359375 335.679688 192.894531 C 356.324219 186.113281 370.1875 166.972656 370.1875 145.273438 L 370.1875 131.410156 C 370.1875 121.460938 378.328125 113.476562 388.121094 113.476562 L 422.332031 113.476562 C 432.277344 113.476562 440.261719 121.613281 440.261719 131.410156 L 440.261719 145.273438 C 440.261719 166.972656 454.128906 186.113281 474.773438 192.894531 C 485.320312 196.359375 495.71875 200.730469 505.667969 205.703125 C 525.105469 215.496094 548.464844 211.882812 563.984375 196.511719 L 573.933594 186.5625 C 580.863281 179.480469 592.316406 179.480469 599.398438 186.5625 L 623.664062 210.824219 C 630.746094 217.910156 630.746094 229.210938 623.664062 236.292969 L 613.714844 246.238281 C 598.34375 261.609375 594.578125 284.96875 604.523438 304.558594 C 609.496094 314.507812 613.867188 324.753906 617.332031 335.453125 C 624.113281 356.097656 643.253906 369.960938 664.953125 369.960938 L 678.816406 369.960938 C 688.765625 369.960938 696.75 378.101562 696.75 387.894531 L 696.75 421.953125 Z M 696.601562 421.953125 " fill-opacity="1" fill-rule="nonzero"/><path fill="#ffffff" d="M 405 234.785156 C 311.265625 234.785156 234.863281 311.039062 234.863281 404.925781 C 234.863281 498.808594 311.265625 575.0625 405 575.0625 C 498.734375 575.0625 575.136719 498.660156 575.136719 404.925781 C 575.136719 311.191406 498.734375 234.785156 405 234.785156 Z M 405 542.664062 C 329.046875 542.664062 267.261719 480.875 267.261719 404.925781 C 267.261719 328.972656 329.046875 267.1875 405 267.1875 C 480.953125 267.1875 542.738281 328.972656 542.738281 404.925781 C 542.738281 480.875 480.953125 542.664062 405 542.664062 Z M 405 542.664062 " fill-opacity="1" fill-rule="nonzero"/></svg>