<svg xmlns="http://www.w3.org/2000/svg" xmlns:xlink="http://www.w3.org/1999/xlink" width="1080" zoomAndPan="magnify" viewBox="0 0 810 809.999993" height="1080" preserveAspectRatio="xMidYMid meet" version="1.0"><path fill="#ffffff" d="M 524.070312 243 L 477 243 L 477 225 C 477 224.410156 476.972656 223.824219 476.914062 223.234375 C 476.855469 222.648438 476.769531 222.066406 476.652344 221.488281 C 476.539062 220.910156 476.394531 220.339844 476.226562 219.773438 C 476.054688 219.210938 475.855469 218.65625 475.628906 218.113281 C 475.402344 217.566406 475.152344 217.035156 474.875 216.515625 C 474.597656 215.996094 474.292969 215.488281 473.964844 215 C 473.640625 214.507812 473.289062 214.035156 472.914062 213.582031 C 472.539062 213.125 472.144531 212.6875 471.726562 212.273438 C 471.3125 211.855469 470.875 211.460938 470.417969 211.085938 C 469.964844 210.710938 469.492188 210.359375 469 210.035156 C 468.511719 209.707031 468.003906 209.402344 467.484375 209.125 C 466.964844 208.847656 466.433594 208.597656 465.886719 208.371094 C 465.34375 208.144531 464.789062 207.945312 464.226562 207.773438 C 463.660156 207.605469 463.089844 207.460938 462.511719 207.347656 C 461.933594 207.230469 461.351562 207.144531 460.765625 207.085938 C 460.175781 207.027344 459.589844 207 459 207 L 351 207 C 350.410156 207 349.824219 207.027344 349.234375 207.085938 C 348.648438 207.144531 348.066406 207.230469 347.488281 207.347656 C 346.910156 207.460938 346.339844 207.605469 345.773438 207.773438 C 345.210938 207.945312 344.65625 208.144531 344.113281 208.371094 C 343.566406 208.597656 343.035156 208.847656 342.515625 209.125 C 341.996094 209.402344 341.488281 209.707031 341 210.035156 C 340.507812 210.359375 340.035156 210.710938 339.582031 211.085938 C 339.125 211.460938 338.6875 211.855469 338.273438 212.273438 C 337.855469 212.6875 337.460938 213.125 337.085938 213.582031 C 336.710938 214.035156 336.359375 214.507812 336.035156 215 C 335.707031 215.488281 335.402344 215.996094 335.125 216.515625 C 334.847656 217.035156 334.597656 217.566406 334.371094 218.113281 C 334.144531 218.65625 333.945312 219.210938 333.773438 219.773438 C 333.605469 220.339844 333.460938 220.910156 333.347656 221.488281 C 333.230469 222.066406 333.144531 222.648438 333.085938 223.234375 C 333.027344 223.824219 333 224.410156 333 225 L 333 243 L 285.929688 243 C 284.523438 243 283.121094 243.074219 281.722656 243.210938 C 280.324219 243.351562 278.9375 243.558594 277.558594 243.832031 C 276.179688 244.109375 274.820312 244.453125 273.472656 244.859375 C 272.128906 245.269531 270.808594 245.742188 269.507812 246.28125 C 268.210938 246.820312 266.941406 247.421875 265.703125 248.085938 C 264.464844 248.75 263.261719 249.46875 262.09375 250.25 C 260.921875 251.03125 259.796875 251.871094 258.710938 252.761719 C 257.625 253.652344 256.582031 254.597656 255.589844 255.589844 C 254.597656 256.582031 253.652344 257.625 252.761719 258.710938 C 251.871094 259.796875 251.03125 260.921875 250.25 262.09375 C 249.46875 263.261719 248.75 264.464844 248.085938 265.703125 C 247.421875 266.941406 246.820312 268.210938 246.28125 269.511719 C 245.742188 270.808594 245.269531 272.128906 244.859375 273.472656 C 244.453125 274.820312 244.109375 276.179688 243.832031 277.558594 C 243.558594 278.9375 243.351562 280.324219 243.210938 281.722656 C 243.070312 283.121094 243 284.523438 243 285.929688 L 243 560.070312 C 243 561.476562 243.074219 562.878906 243.210938 564.277344 C 243.351562 565.675781 243.558594 567.0625 243.832031 568.441406 C 244.109375 569.820312 244.453125 571.179688 244.859375 572.527344 C 245.269531 573.871094 245.742188 575.191406 246.28125 576.492188 C 246.820312 577.789062 247.421875 579.058594 248.085938 580.296875 C 248.75 581.535156 249.46875 582.738281 250.25 583.90625 C 251.03125 585.078125 251.871094 586.203125 252.761719 587.289062 C 253.652344 588.375 254.597656 589.417969 255.589844 590.410156 C 256.582031 591.402344 257.625 592.347656 258.710938 593.238281 C 259.796875 594.128906 260.921875 594.96875 262.09375 595.75 C 263.261719 596.53125 264.464844 597.25 265.703125 597.914062 C 266.941406 598.578125 268.210938 599.179688 269.511719 599.71875 C 270.808594 600.257812 272.128906 600.730469 273.472656 601.140625 C 274.820312 601.546875 276.179688 601.890625 277.558594 602.167969 C 278.9375 602.441406 280.324219 602.648438 281.722656 602.789062 C 283.121094 602.925781 284.523438 603 285.929688 603 L 524.070312 603 C 525.476562 603 526.878906 602.925781 528.277344 602.789062 C 529.675781 602.648438 531.0625 602.441406 532.441406 602.167969 C 533.820312 601.890625 535.179688 601.546875 536.527344 601.140625 C 537.871094 600.730469 539.191406 600.257812 540.488281 599.71875 C 541.789062 599.179688 543.058594 598.578125 544.296875 597.914062 C 545.535156 597.25 546.738281 596.53125 547.90625 595.75 C 549.078125 594.96875 550.203125 594.128906 551.289062 593.238281 C 552.375 592.347656 553.417969 591.402344 554.410156 590.410156 C 555.402344 589.417969 556.347656 588.375 557.238281 587.289062 C 558.128906 586.203125 558.96875 585.078125 559.75 583.90625 C 560.53125 582.738281 561.25 581.535156 561.914062 580.296875 C 562.578125 579.058594 563.179688 577.789062 563.71875 576.488281 C 564.257812 575.191406 564.730469 573.871094 565.140625 572.527344 C 565.546875 571.179688 565.890625 569.820312 566.167969 568.441406 C 566.441406 567.0625 566.648438 565.675781 566.789062 564.277344 C 566.925781 562.878906 567 561.476562 567 560.070312 L 567 285.929688 C 567 284.523438 566.925781 283.121094 566.789062 281.722656 C 566.648438 280.324219 566.441406 278.9375 566.167969 277.558594 C 565.890625 276.179688 565.546875 274.820312 565.140625 273.472656 C 564.730469 272.128906 564.257812 270.808594 563.71875 269.511719 C 563.179688 268.210938 562.578125 266.941406 561.914062 265.703125 C 561.25 264.464844 560.53125 263.261719 559.75 262.09375 C 558.96875 260.921875 558.128906 259.796875 557.238281 258.710938 C 556.347656 257.625 555.402344 256.582031 554.410156 255.589844 C 553.417969 254.597656 552.375 253.652344 551.289062 252.761719 C 550.203125 251.871094 549.078125 251.03125 547.90625 250.25 C 546.738281 249.46875 545.535156 248.75 544.296875 248.085938 C 543.058594 247.421875 541.789062 246.820312 540.488281 246.28125 C 539.191406 245.742188 537.871094 245.269531 536.527344 244.859375 C 535.179688 244.453125 533.820312 244.109375 532.441406 243.832031 C 531.0625 243.558594 529.675781 243.351562 528.277344 243.210938 C 526.878906 243.074219 525.476562 243 524.070312 243 Z M 369 243 L 441 243 L 441 279 L 369 279 Z M 531 560.070312 C 531 560.523438 530.953125 560.976562 530.863281 561.421875 C 530.773438 561.867188 530.640625 562.300781 530.46875 562.71875 C 530.292969 563.140625 530.078125 563.539062 529.828125 563.914062 C 529.574219 564.292969 529.285156 564.644531 528.964844 564.964844 C 528.644531 565.285156 528.292969 565.574219 527.914062 565.828125 C 527.539062 566.078125 527.140625 566.292969 526.71875 566.46875 C 526.300781 566.640625 525.867188 566.773438 525.421875 566.863281 C 524.976562 566.953125 524.523438 567 524.070312 567 L 285.929688 567 C 285.476562 567 285.023438 566.953125 284.578125 566.863281 C 284.132812 566.773438 283.699219 566.640625 283.28125 566.46875 C 282.859375 566.292969 282.460938 566.078125 282.085938 565.828125 C 281.707031 565.574219 281.355469 565.285156 281.035156 564.964844 C 280.714844 564.644531 280.425781 564.292969 280.171875 563.914062 C 279.921875 563.539062 279.707031 563.140625 279.53125 562.71875 C 279.359375 562.300781 279.226562 561.867188 279.136719 561.421875 C 279.046875 560.976562 279 560.523438 279 560.070312 L 279 285.929688 C 279 285.476562 279.046875 285.023438 279.136719 284.578125 C 279.226562 284.132812 279.359375 283.699219 279.53125 283.28125 C 279.707031 282.859375 279.921875 282.460938 280.171875 282.085938 C 280.425781 281.707031 280.714844 281.355469 281.035156 281.035156 C 281.355469 280.714844 281.707031 280.425781 282.085938 280.171875 C 282.460938 279.921875 282.859375 279.707031 283.28125 279.53125 C 283.699219 279.359375 284.132812 279.226562 284.578125 279.136719 C 285.023438 279.046875 285.476562 279 285.929688 279 L 333 279 L 333 297 C 333 297.589844 333.027344 298.175781 333.085938 298.765625 C 333.144531 299.351562 333.230469 299.933594 333.347656 300.511719 C 333.460938 301.089844 333.605469 301.660156 333.773438 302.226562 C 333.945312 302.789062 334.144531 303.34375 334.371094 303.886719 C 334.597656 304.433594 334.847656 304.964844 335.125 305.484375 C 335.402344 306.003906 335.707031 306.511719 336.035156 307 C 336.359375 307.492188 336.710938 307.964844 337.085938 308.417969 C 337.460938 308.875 337.855469 309.3125 338.273438 309.726562 C 338.6875 310.144531 339.125 310.539062 339.582031 310.914062 C 340.035156 311.289062 340.507812 311.640625 341 311.964844 C 341.488281 312.292969 341.996094 312.597656 342.515625 312.875 C 343.035156 313.152344 343.566406 313.402344 344.113281 313.628906 C 344.65625 313.855469 345.210938 314.054688 345.773438 314.226562 C 346.339844 314.394531 346.910156 314.539062 347.488281 314.652344 C 348.066406 314.769531 348.648438 314.855469 349.234375 314.914062 C 349.824219 314.972656 350.410156 315 351 315 L 459 315 C 459.589844 315 460.175781 314.972656 460.765625 314.914062 C 461.351562 314.855469 461.933594 314.769531 462.511719 314.652344 C 463.089844 314.539062 463.660156 314.394531 464.226562 314.226562 C 464.789062 314.054688 465.34375 313.855469 465.886719 313.628906 C 466.433594 313.402344 466.964844 313.152344 467.484375 312.875 C 468.003906 312.597656 468.511719 312.292969 469 311.964844 C 469.492188 311.640625 469.964844 311.289062 470.417969 310.914062 C 470.875 310.539062 471.3125 310.144531 471.726562 309.726562 C 472.144531 309.3125 472.539062 308.875 472.914062 308.417969 C 473.289062 307.964844 473.640625 307.492188 473.964844 307 C 474.292969 306.511719 474.597656 306.003906 474.875 305.484375 C 475.152344 304.964844 475.402344 304.433594 475.628906 303.886719 C 475.855469 303.34375 476.054688 302.789062 476.226562 302.226562 C 476.394531 301.660156 476.539062 301.089844 476.652344 300.511719 C 476.769531 299.933594 476.855469 299.351562 476.914062 298.765625 C 476.972656 298.175781 477 297.589844 477 297 L 477 279 L 524.070312 279 C 524.523438 279 524.976562 279.046875 525.421875 279.136719 C 525.867188 279.226562 526.300781 279.359375 526.71875 279.53125 C 527.140625 279.707031 527.539062 279.921875 527.914062 280.171875 C 528.292969 280.425781 528.644531 280.714844 528.964844 281.035156 C 529.285156 281.355469 529.574219 281.707031 529.828125 282.085938 C 530.078125 282.460938 530.292969 282.859375 530.46875 283.28125 C 530.640625 283.699219 530.773438 284.132812 530.863281 284.578125 C 530.953125 285.023438 531 285.476562 531 285.929688 Z M 531 560.070312 " fill-opacity="1" fill-rule="nonzero"/><path fill="#ffffff" d="M 477 351 L 333 351 C 332.410156 351 331.824219 351.027344 331.234375 351.085938 C 330.648438 351.144531 330.066406 351.230469 329.488281 351.347656 C 328.910156 351.460938 328.339844 351.605469 327.773438 351.773438 C 327.210938 351.945312 326.65625 352.144531 326.113281 352.371094 C 325.566406 352.597656 325.035156 352.847656 324.515625 353.125 C 323.996094 353.402344 323.488281 353.707031 323 354.035156 C 322.507812 354.359375 322.035156 354.710938 321.582031 355.085938 C 321.125 355.460938 320.6875 355.855469 320.273438 356.273438 C 319.855469 356.6875 319.460938 357.125 319.085938 357.582031 C 318.710938 358.035156 318.359375 358.507812 318.035156 359 C 317.707031 359.488281 317.402344 359.996094 317.125 360.515625 C 316.847656 361.035156 316.597656 361.566406 316.371094 362.113281 C 316.144531 362.65625 315.945312 363.210938 315.773438 363.773438 C 315.605469 364.339844 315.460938 364.910156 315.347656 365.488281 C 315.230469 366.066406 315.144531 366.648438 315.085938 367.234375 C 315.027344 367.824219 315 368.410156 315 369 C 315 369.589844 315.027344 370.175781 315.085938 370.765625 C 315.144531 371.351562 315.230469 371.933594 315.347656 372.511719 C 315.460938 373.089844 315.605469 373.660156 315.773438 374.226562 C 315.945312 374.789062 316.144531 375.34375 316.371094 375.886719 C 316.597656 376.433594 316.847656 376.964844 317.125 377.484375 C 317.402344 378.003906 317.707031 378.511719 318.035156 379 C 318.359375 379.492188 318.710938 379.964844 319.085938 380.417969 C 319.460938 380.875 319.855469 381.3125 320.273438 381.726562 C 320.6875 382.144531 321.125 382.539062 321.582031 382.914062 C 322.035156 383.289062 322.507812 383.640625 323 383.964844 C 323.488281 384.292969 323.996094 384.597656 324.515625 384.875 C 325.035156 385.152344 325.566406 385.402344 326.113281 385.628906 C 326.65625 385.855469 327.210938 386.054688 327.773438 386.226562 C 328.339844 386.394531 328.910156 386.539062 329.488281 386.652344 C 330.066406 386.769531 330.648438 386.855469 331.234375 386.914062 C 331.824219 386.972656 332.410156 387 333 387 L 477 387 C 477.589844 387 478.175781 386.972656 478.765625 386.914062 C 479.351562 386.855469 479.933594 386.769531 480.511719 386.652344 C 481.089844 386.539062 481.660156 386.394531 482.226562 386.226562 C 482.789062 386.054688 483.34375 385.855469 483.886719 385.628906 C 484.433594 385.402344 484.964844 385.152344 485.484375 384.875 C 486.003906 384.597656 486.511719 384.292969 487 383.964844 C 487.492188 383.640625 487.964844 383.289062 488.417969 382.914062 C 488.875 382.539062 489.3125 382.144531 489.726562 381.726562 C 490.144531 381.3125 490.539062 380.875 490.914062 380.417969 C 491.289062 379.964844 491.640625 379.492188 491.964844 379 C 492.292969 378.511719 492.597656 378.003906 492.875 377.484375 C 493.152344 376.964844 493.402344 376.433594 493.628906 375.886719 C 493.855469 375.34375 494.054688 374.789062 494.226562 374.226562 C 494.394531 373.660156 494.539062 373.089844 494.652344 372.511719 C 494.769531 371.933594 494.855469 371.351562 494.914062 370.765625 C 494.972656 370.175781 495 369.589844 495 369 C 495 368.410156 494.972656 367.824219 494.914062 367.234375 C 494.855469 366.648438 494.769531 366.066406 494.652344 365.488281 C 494.539062 364.910156 494.394531 364.339844 494.226562 363.773438 C 494.054688 363.210938 493.855469 362.65625 493.628906 362.113281 C 493.402344 361.566406 493.152344 361.035156 492.875 360.515625 C 492.597656 359.996094 492.292969 359.488281 491.964844 359 C 491.640625 358.507812 491.289062 358.035156 490.914062 357.582031 C 490.539062 357.125 490.144531 356.6875 489.726562 356.273438 C 489.3125 355.855469 488.875 355.460938 488.417969 355.085938 C 487.964844 354.710938 487.492188 354.359375 487 354.035156 C 486.511719 353.707031 486.003906 353.402344 485.484375 353.125 C 484.964844 352.847656 484.433594 352.597656 483.886719 352.371094 C 483.34375 352.144531 482.789062 351.945312 482.226562 351.773438 C 481.660156 351.605469 481.089844 351.460938 480.511719 351.347656 C 479.933594 351.230469 479.351562 351.144531 478.765625 351.085938 C 478.175781 351.027344 477.589844 351 477 351 Z M 477 351 " fill-opacity="1" fill-rule="nonzero"/><path fill="#ffffff" d="M 477 423 L 333 423 C 332.410156 423 331.824219 423.027344 331.234375 423.085938 C 330.648438 423.144531 330.066406 423.230469 329.488281 423.347656 C 328.910156 423.460938 328.339844 423.605469 327.773438 423.773438 C 327.210938 423.945312 326.65625 424.144531 326.113281 424.371094 C 325.566406 424.597656 325.035156 424.847656 324.515625 425.125 C 323.996094 425.402344 323.488281 425.707031 323 426.035156 C 322.507812 426.359375 322.035156 426.710938 321.582031 427.085938 C 321.125 427.460938 320.6875 427.855469 320.273438 428.273438 C 319.855469 428.6875 319.460938 429.125 319.085938 429.582031 C 318.710938 430.035156 318.359375 430.507812 318.035156 431 C 317.707031 431.488281 317.402344 431.996094 317.125 432.515625 C 316.847656 433.035156 316.597656 433.566406 316.371094 434.113281 C 316.144531 434.65625 315.945312 435.210938 315.773438 435.773438 C 315.605469 436.339844 315.460938 436.910156 315.347656 437.488281 C 315.230469 438.066406 315.144531 438.648438 315.085938 439.234375 C 315.027344 439.824219 315 440.410156 315 441 C 315 441.589844 315.027344 442.175781 315.085938 442.765625 C 315.144531 443.351562 315.230469 443.933594 315.347656 444.511719 C 315.460938 445.089844 315.605469 445.660156 315.773438 446.226562 C 315.945312 446.789062 316.144531 447.34375 316.371094 447.886719 C 316.597656 448.433594 316.847656 448.964844 317.125 449.484375 C 317.402344 450.003906 317.707031 450.511719 318.035156 451 C 318.359375 451.492188 318.710938 451.964844 319.085938 452.417969 C 319.460938 452.875 319.855469 453.3125 320.273438 453.726562 C 320.6875 454.144531 321.125 454.539062 321.582031 454.914062 C 322.035156 455.289062 322.507812 455.640625 323 455.964844 C 323.488281 456.292969 323.996094 456.597656 324.515625 456.875 C 325.035156 457.152344 325.566406 457.402344 326.113281 457.628906 C 326.65625 457.855469 327.210938 458.054688 327.773438 458.226562 C 328.339844 458.394531 328.910156 458.539062 329.488281 458.652344 C 330.066406 458.769531 330.648438 458.855469 331.234375 458.914062 C 331.824219 458.972656 332.410156 459 333 459 L 477 459 C 477.589844 459 478.175781 458.972656 478.765625 458.914062 C 479.351562 458.855469 479.933594 458.769531 480.511719 458.652344 C 481.089844 458.539062 481.660156 458.394531 482.226562 458.226562 C 482.789062 458.054688 483.34375 457.855469 483.886719 457.628906 C 484.433594 457.402344 484.964844 457.152344 485.484375 456.875 C 486.003906 456.597656 486.511719 456.292969 487 455.964844 C 487.492188 455.640625 487.964844 455.289062 488.417969 454.914062 C 488.875 454.539062 489.3125 454.144531 489.726562 453.726562 C 490.144531 453.3125 490.539062 452.875 490.914062 452.417969 C 491.289062 451.964844 491.640625 451.492188 491.964844 451 C 492.292969 450.511719 492.597656 450.003906 492.875 449.484375 C 493.152344 448.964844 493.402344 448.433594 493.628906 447.886719 C 493.855469 447.34375 494.054688 446.789062 494.226562 446.226562 C 494.394531 445.660156 494.539062 445.089844 494.652344 444.511719 C 494.769531 443.933594 494.855469 443.351562 494.914062 442.765625 C 494.972656 442.175781 495 441.589844 495 441 C 495 440.410156 494.972656 439.824219 494.914062 439.234375 C 494.855469 438.648438 494.769531 438.066406 494.652344 437.488281 C 494.539062 436.910156 494.394531 436.339844 494.226562 435.773438 C 494.054688 435.210938 493.855469 434.65625 493.628906 434.113281 C 493.402344 433.566406 493.152344 433.035156 492.875 432.515625 C 492.597656 431.996094 492.292969 431.488281 491.964844 431 C 491.640625 430.507812 491.289062 430.035156 490.914062 429.582031 C 490.539062 429.125 490.144531 428.6875 489.726562 428.273438 C 489.3125 427.855469 488.875 427.460938 488.417969 427.085938 C 487.964844 426.710938 487.492188 426.359375 487 426.035156 C 486.511719 425.707031 486.003906 425.402344 485.484375 425.125 C 484.964844 424.847656 484.433594 424.597656 483.886719 424.371094 C 483.34375 424.144531 482.789062 423.945312 482.226562 423.773438 C 481.660156 423.605469 481.089844 423.460938 480.511719 423.347656 C 479.933594 423.230469 479.351562 423.144531 478.765625 423.085938 C 478.175781 423.027344 477.589844 423 477 423 Z M 477 423 " fill-opacity="1" fill-rule="nonzero"/><path fill="#ffffff" d="M 477 495 L 333 495 C 332.410156 495 331.824219 495.027344 331.234375 495.085938 C 330.648438 495.144531 330.066406 495.230469 329.488281 495.347656 C 328.910156 495.460938 328.339844 495.605469 327.773438 495.773438 C 327.210938 495.945312 326.65625 496.144531 326.113281 496.371094 C 325.566406 496.597656 325.035156 496.847656 324.515625 497.125 C 323.996094 497.402344 323.488281 497.707031 323 498.035156 C 322.507812 498.359375 322.035156 498.710938 321.582031 499.085938 C 321.125 499.460938 320.6875 499.855469 320.273438 500.273438 C 319.855469 500.6875 319.460938 501.125 319.085938 501.582031 C 318.710938 502.035156 318.359375 502.507812 318.035156 503 C 317.707031 503.488281 317.402344 503.996094 317.125 504.515625 C 316.847656 505.035156 316.597656 505.566406 316.371094 506.113281 C 316.144531 506.65625 315.945312 507.210938 315.773438 507.773438 C 315.605469 508.339844 315.460938 508.910156 315.347656 509.488281 C 315.230469 510.066406 315.144531 510.648438 315.085938 511.234375 C 315.027344 511.824219 315 512.410156 315 513 C 315 513.589844 315.027344 514.175781 315.085938 514.765625 C 315.144531 515.351562 315.230469 515.933594 315.347656 516.511719 C 315.460938 517.089844 315.605469 517.660156 315.773438 518.226562 C 315.945312 518.789062 316.144531 519.34375 316.371094 519.886719 C 316.597656 520.433594 316.847656 520.964844 317.125 521.484375 C 317.402344 522.003906 317.707031 522.511719 318.035156 523 C 318.359375 523.492188 318.710938 523.964844 319.085938 524.417969 C 319.460938 524.875 319.855469 525.3125 320.273438 525.726562 C 320.6875 526.144531 321.125 526.539062 321.582031 526.914062 C 322.035156 527.289062 322.507812 527.640625 323 527.964844 C 323.488281 528.292969 323.996094 528.597656 324.515625 528.875 C 325.035156 529.152344 325.566406 529.402344 326.113281 529.628906 C 326.65625 529.855469 327.210938 530.054688 327.773438 530.226562 C 328.339844 530.394531 328.910156 530.539062 329.488281 530.652344 C 330.066406 530.769531 330.648438 530.855469 331.234375 530.914062 C 331.824219 530.972656 332.410156 531 333 531 L 477 531 C 477.589844 531 478.175781 530.972656 478.765625 530.914062 C 479.351562 530.855469 479.933594 530.769531 480.511719 530.652344 C 481.089844 530.539062 481.660156 530.394531 482.226562 530.226562 C 482.789062 530.054688 483.34375 529.855469 483.886719 529.628906 C 484.433594 529.402344 484.964844 529.152344 485.484375 528.875 C 486.003906 528.597656 486.511719 528.292969 487 527.964844 C 487.492188 527.640625 487.964844 527.289062 488.417969 526.914062 C 488.875 526.539062 489.3125 526.144531 489.726562 525.726562 C 490.144531 525.3125 490.539062 524.875 490.914062 524.417969 C 491.289062 523.964844 491.640625 523.492188 491.964844 523 C 492.292969 522.511719 492.597656 522.003906 492.875 521.484375 C 493.152344 520.964844 493.402344 520.433594 493.628906 519.886719 C 493.855469 519.34375 494.054688 518.789062 494.226562 518.226562 C 494.394531 517.660156 494.539062 517.089844 494.652344 516.511719 C 494.769531 515.933594 494.855469 515.351562 494.914062 514.765625 C 494.972656 514.175781 495 513.589844 495 513 C 495 512.410156 494.972656 511.824219 494.914062 511.234375 C 494.855469 510.648438 494.769531 510.066406 494.652344 509.488281 C 494.539062 508.910156 494.394531 508.339844 494.226562 507.773438 C 494.054688 507.210938 493.855469 506.65625 493.628906 506.113281 C 493.402344 505.566406 493.152344 505.035156 492.875 504.515625 C 492.597656 503.996094 492.292969 503.488281 491.964844 503 C 491.640625 502.507812 491.289062 502.035156 490.914062 501.582031 C 490.539062 501.125 490.144531 500.6875 489.726562 500.273438 C 489.3125 499.855469 488.875 499.460938 488.417969 499.085938 C 487.964844 498.710938 487.492188 498.359375 487 498.035156 C 486.511719 497.707031 486.003906 497.402344 485.484375 497.125 C 484.964844 496.847656 484.433594 496.597656 483.886719 496.371094 C 483.34375 496.144531 482.789062 495.945312 482.226562 495.773438 C 481.660156 495.605469 481.089844 495.460938 480.511719 495.347656 C 479.933594 495.230469 479.351562 495.144531 478.765625 495.085938 C 478.175781 495.027344 477.589844 495 477 495 Z M 477 495 " fill-opacity="1" fill-rule="nonzero"/><path fill="#ffffff" d="M 405 81 C 399.699219 81 394.398438 81.128906 389.101562 81.390625 C 383.804688 81.652344 378.519531 82.039062 373.242188 82.558594 C 367.964844 83.078125 362.703125 83.730469 357.460938 84.507812 C 352.214844 85.285156 346.992188 86.191406 341.789062 87.226562 C 336.589844 88.261719 331.417969 89.421875 326.273438 90.710938 C 321.128906 92 316.023438 93.414062 310.949219 94.953125 C 305.875 96.492188 300.839844 98.152344 295.847656 99.941406 C 290.855469 101.726562 285.910156 103.632812 281.011719 105.664062 C 276.113281 107.691406 271.265625 109.839844 266.472656 112.109375 C 261.679688 114.375 256.945312 116.757812 252.265625 119.257812 C 247.589844 121.757812 242.980469 124.371094 238.429688 127.097656 C 233.882812 129.820312 229.402344 132.65625 224.996094 135.605469 C 220.585938 138.550781 216.253906 141.601562 211.992188 144.761719 C 207.734375 147.917969 203.554688 151.179688 199.457031 154.542969 C 195.359375 157.910156 191.34375 161.371094 187.414062 164.933594 C 183.484375 168.492188 179.648438 172.148438 175.898438 175.898438 C 172.148438 179.648438 168.492188 183.484375 164.933594 187.414062 C 161.371094 191.34375 157.910156 195.359375 154.542969 199.457031 C 151.179688 203.554688 147.917969 207.734375 144.761719 211.992188 C 141.601562 216.253906 138.550781 220.585938 135.605469 224.996094 C 132.65625 229.402344 129.820312 233.882812 127.097656 238.429688 C 124.371094 242.980469 121.757812 247.589844 119.257812 252.265625 C 116.757812 256.945312 114.375 261.679688 112.109375 266.472656 C 109.839844 271.265625 107.691406 276.113281 105.664062 281.011719 C 103.632812 285.910156 101.726562 290.855469 99.941406 295.847656 C 98.152344 300.839844 96.492188 305.875 94.953125 310.949219 C 93.410156 316.023438 92 321.128906 90.710938 326.273438 C 89.421875 331.417969 88.261719 336.589844 87.226562 341.789062 C 86.191406 346.992188 85.285156 352.214844 84.507812 357.460938 C 83.730469 362.703125 83.078125 367.964844 82.558594 373.242188 C 82.039062 378.519531 81.652344 383.804688 81.390625 389.101562 C 81.128906 394.398438 81 399.699219 81 405 C 81 410.300781 81.128906 415.601562 81.390625 420.898438 C 81.652344 426.195312 82.039062 431.480469 82.558594 436.757812 C 83.078125 442.035156 83.730469 447.296875 84.507812 452.539062 C 85.285156 457.785156 86.191406 463.007812 87.226562 468.210938 C 88.261719 473.410156 89.421875 478.582031 90.710938 483.726562 C 92 488.867188 93.410156 493.976562 94.953125 499.050781 C 96.492188 504.125 98.152344 509.160156 99.941406 514.152344 C 101.726562 519.144531 103.632812 524.089844 105.664062 528.988281 C 107.691406 533.886719 109.839844 538.734375 112.109375 543.527344 C 114.375 548.320312 116.757812 553.054688 119.257812 557.734375 C 121.757812 562.410156 124.371094 567.019531 127.097656 571.570312 C 129.820312 576.117188 132.65625 580.597656 135.605469 585.003906 C 138.550781 589.414062 141.601562 593.746094 144.761719 598.007812 C 147.917969 602.265625 151.179688 606.445312 154.542969 610.542969 C 157.910156 614.640625 161.371094 618.65625 164.933594 622.585938 C 168.492188 626.515625 172.148438 630.351562 175.898438 634.101562 C 179.648438 637.851562 183.484375 641.507812 187.414062 645.066406 C 191.34375 648.628906 195.359375 652.089844 199.457031 655.457031 C 203.554688 658.820312 207.734375 662.082031 211.992188 665.238281 C 216.253906 668.398438 220.585938 671.449219 224.996094 674.394531 C 229.402344 677.34375 233.882812 680.179688 238.429688 682.902344 C 242.980469 685.628906 247.589844 688.242188 252.265625 690.742188 C 256.945312 693.242188 261.679688 695.625 266.472656 697.890625 C 271.265625 700.160156 276.113281 702.308594 281.011719 704.335938 C 285.910156 706.367188 290.855469 708.273438 295.847656 710.058594 C 300.839844 711.847656 305.875 713.507812 310.949219 715.046875 C 316.023438 716.585938 321.128906 718 326.273438 719.289062 C 331.417969 720.578125 336.589844 721.738281 341.789062 722.773438 C 346.992188 723.808594 352.214844 724.714844 357.460938 725.492188 C 362.703125 726.269531 367.964844 726.921875 373.242188 727.441406 C 378.519531 727.960938 383.804688 728.347656 389.101562 728.609375 C 394.398438 728.871094 399.699219 729 405 729 C 410.300781 729 415.601562 728.871094 420.898438 728.609375 C 426.195312 728.347656 431.480469 727.960938 436.757812 727.441406 C 442.035156 726.921875 447.296875 726.269531 452.539062 725.492188 C 457.785156 724.714844 463.007812 723.808594 468.210938 722.773438 C 473.410156 721.738281 478.582031 720.578125 483.726562 719.289062 C 488.867188 718 493.976562 716.585938 499.050781 715.046875 C 504.125 713.507812 509.160156 711.847656 514.152344 710.058594 C 519.144531 708.273438 524.089844 706.367188 528.988281 704.335938 C 533.886719 702.308594 538.734375 700.160156 543.527344 697.890625 C 548.320312 695.625 553.054688 693.242188 557.734375 690.742188 C 562.410156 688.242188 567.019531 685.628906 571.570312 682.902344 C 576.117188 680.179688 580.597656 677.34375 585.003906 674.394531 C 589.414062 671.449219 593.746094 668.398438 598.007812 665.238281 C 602.265625 662.082031 606.445312 658.820312 610.542969 655.457031 C 614.640625 652.089844 618.65625 648.628906 622.585938 645.066406 C 626.515625 641.507812 630.351562 637.851562 634.101562 634.101562 C 637.851562 630.351562 641.507812 626.515625 645.066406 622.585938 C 648.628906 618.65625 652.089844 614.640625 655.457031 610.542969 C 658.820312 606.445312 662.082031 602.265625 665.238281 598.007812 C 668.398438 593.746094 671.449219 589.414062 674.394531 585.003906 C 677.34375 580.597656 680.179688 576.117188 682.902344 571.570312 C 685.628906 567.019531 688.242188 562.410156 690.742188 557.734375 C 693.242188 553.054688 695.625 548.320312 697.890625 543.527344 C 700.160156 538.734375 702.308594 533.886719 704.335938 528.988281 C 706.367188 524.089844 708.273438 519.144531 710.058594 514.152344 C 711.847656 509.160156 713.507812 504.125 715.046875 499.050781 C 716.585938 493.976562 718 488.867188 719.289062 483.726562 C 720.578125 478.582031 721.738281 473.410156 722.773438 468.210938 C 723.808594 463.007812 724.714844 457.785156 725.492188 452.539062 C 726.269531 447.296875 726.921875 442.035156 727.441406 436.757812 C 727.960938 431.480469 728.347656 426.195312 728.609375 420.898438 C 728.871094 415.601562 729 410.300781 729 405 C 728.992188 399.699219 728.859375 394.402344 728.59375 389.109375 C 728.324219 383.8125 727.929688 378.527344 727.40625 373.253906 C 726.878906 367.980469 726.226562 362.71875 725.445312 357.476562 C 724.660156 352.234375 723.75 347.015625 722.710938 341.816406 C 721.671875 336.617188 720.507812 331.449219 719.214844 326.308594 C 717.921875 321.167969 716.507812 316.0625 714.964844 310.988281 C 713.421875 305.917969 711.753906 300.886719 709.964844 295.898438 C 708.175781 290.910156 706.265625 285.964844 704.234375 281.070312 C 702.203125 276.171875 700.054688 271.328125 697.785156 266.539062 C 695.515625 261.75 693.132812 257.015625 690.632812 252.34375 C 688.128906 247.667969 685.515625 243.058594 682.789062 238.511719 C 680.0625 233.96875 677.226562 229.492188 674.28125 225.085938 C 671.332031 220.679688 668.28125 216.347656 665.121094 212.089844 C 661.964844 207.832031 658.703125 203.65625 655.339844 199.558594 C 651.976562 195.460938 648.515625 191.449219 644.953125 187.519531 C 641.394531 183.59375 637.742188 179.757812 633.992188 176.007812 C 630.242188 172.257812 626.40625 168.605469 622.480469 165.046875 C 618.550781 161.484375 614.539062 158.023438 610.441406 154.660156 C 606.34375 151.296875 602.167969 148.035156 597.910156 144.878906 C 593.652344 141.71875 589.320312 138.667969 584.914062 135.71875 C 580.507812 132.773438 576.03125 129.9375 571.488281 127.210938 C 566.941406 124.484375 562.332031 121.871094 557.65625 119.367188 C 552.984375 116.867188 548.25 114.484375 543.460938 112.214844 C 538.671875 109.945312 533.828125 107.796875 528.929688 105.765625 C 524.035156 103.734375 519.089844 101.824219 514.101562 100.035156 C 509.113281 98.246094 504.082031 96.578125 499.011719 95.035156 C 493.9375 93.492188 488.832031 92.078125 483.691406 90.785156 C 478.550781 89.492188 473.382812 88.328125 468.183594 87.289062 C 462.984375 86.25 457.765625 85.339844 452.523438 84.554688 C 447.277344 83.773438 442.019531 83.121094 436.746094 82.59375 C 431.472656 82.070312 426.1875 81.675781 420.890625 81.40625 C 415.597656 81.140625 410.300781 81.007812 405 81 Z M 405 693 C 400.285156 693 395.574219 692.882812 390.867188 692.652344 C 386.160156 692.421875 381.460938 692.074219 376.769531 691.613281 C 372.082031 691.152344 367.402344 690.574219 362.742188 689.882812 C 358.078125 689.191406 353.4375 688.386719 348.8125 687.464844 C 344.191406 686.546875 339.59375 685.515625 335.023438 684.367188 C 330.449219 683.222656 325.910156 681.96875 321.398438 680.597656 C 316.886719 679.230469 312.414062 677.753906 307.976562 676.164062 C 303.539062 674.578125 299.140625 672.882812 294.789062 671.078125 C 290.433594 669.273438 286.125 667.363281 281.863281 665.347656 C 277.601562 663.332031 273.394531 661.214844 269.238281 658.992188 C 265.082031 656.769531 260.980469 654.449219 256.9375 652.027344 C 252.894531 649.601562 248.914062 647.082031 244.996094 644.464844 C 241.078125 641.84375 237.222656 639.132812 233.4375 636.324219 C 229.652344 633.515625 225.9375 630.617188 222.292969 627.625 C 218.652344 624.636719 215.082031 621.558594 211.589844 618.394531 C 208.097656 615.230469 204.6875 611.980469 201.351562 608.648438 C 198.019531 605.3125 194.769531 601.902344 191.605469 598.410156 C 188.441406 594.917969 185.363281 591.347656 182.371094 587.707031 C 179.382812 584.0625 176.484375 580.347656 173.675781 576.5625 C 170.867188 572.777344 168.15625 568.921875 165.535156 565.003906 C 162.917969 561.085938 160.398438 557.105469 157.972656 553.0625 C 155.550781 549.019531 153.230469 544.917969 151.007812 540.761719 C 148.785156 536.605469 146.667969 532.398438 144.652344 528.136719 C 142.636719 523.875 140.726562 519.566406 138.921875 515.210938 C 137.117188 510.859375 135.421875 506.460938 133.835938 502.023438 C 132.246094 497.585938 130.769531 493.113281 129.402344 488.601562 C 128.03125 484.089844 126.777344 479.550781 125.632812 474.976562 C 124.484375 470.40625 123.453125 465.808594 122.535156 461.1875 C 121.613281 456.5625 120.808594 451.921875 120.117188 447.257812 C 119.425781 442.597656 118.847656 437.917969 118.386719 433.230469 C 117.925781 428.539062 117.578125 423.839844 117.347656 419.132812 C 117.117188 414.421875 117 409.714844 117 405 C 117 400.285156 117.117188 395.578125 117.347656 390.867188 C 117.578125 386.160156 117.925781 381.460938 118.386719 376.769531 C 118.847656 372.082031 119.425781 367.402344 120.117188 362.742188 C 120.808594 358.078125 121.613281 353.4375 122.535156 348.8125 C 123.453125 344.191406 124.484375 339.59375 125.632812 335.023438 C 126.777344 330.449219 128.03125 325.910156 129.402344 321.398438 C 130.769531 316.886719 132.246094 312.414062 133.835938 307.976562 C 135.421875 303.539062 137.117188 299.140625 138.921875 294.789062 C 140.726562 290.433594 142.636719 286.125 144.652344 281.863281 C 146.667969 277.601562 148.785156 273.394531 151.007812 269.238281 C 153.230469 265.082031 155.550781 260.980469 157.972656 256.9375 C 160.398438 252.894531 162.917969 248.914062 165.535156 244.996094 C 168.15625 241.078125 170.867188 237.222656 173.675781 233.4375 C 176.484375 229.652344 179.382812 225.9375 182.371094 222.292969 C 185.363281 218.652344 188.441406 215.082031 191.605469 211.589844 C 194.769531 208.097656 198.019531 204.6875 201.351562 201.351562 C 204.6875 198.019531 208.097656 194.769531 211.589844 191.605469 C 215.082031 188.441406 218.652344 185.363281 222.292969 182.371094 C 225.9375 179.382812 229.652344 176.484375 233.4375 173.675781 C 237.222656 170.867188 241.078125 168.15625 244.996094 165.535156 C 248.914062 162.917969 252.894531 160.398438 256.9375 157.972656 C 260.980469 155.550781 265.082031 153.230469 269.238281 151.007812 C 273.394531 148.785156 277.601562 146.667969 281.863281 144.652344 C 286.125 142.636719 290.433594 140.726562 294.789062 138.921875 C 299.140625 137.117188 303.539062 135.421875 307.976562 133.835938 C 312.414062 132.246094 316.886719 130.769531 321.398438 129.402344 C 325.910156 128.03125 330.449219 126.777344 335.023438 125.632812 C 339.59375 124.484375 344.191406 123.453125 348.8125 122.535156 C 353.4375 121.613281 358.078125 120.808594 362.742188 120.117188 C 367.402344 119.425781 372.082031 118.847656 376.769531 118.386719 C 381.460938 117.925781 386.160156 117.578125 390.867188 117.347656 C 395.574219 117.117188 400.285156 117 405 117 C 409.714844 117 414.421875 117.117188 419.132812 117.347656 C 423.839844 117.578125 428.539062 117.925781 433.230469 118.386719 C 437.917969 118.847656 442.597656 119.425781 447.257812 120.117188 C 451.921875 120.808594 456.5625 121.613281 461.1875 122.535156 C 465.808594 123.453125 470.40625 124.484375 474.976562 125.632812 C 479.550781 126.777344 484.089844 128.03125 488.601562 129.402344 C 493.113281 130.769531 497.585938 132.246094 502.023438 133.835938 C 506.460938 135.421875 510.859375 137.117188 515.210938 138.921875 C 519.566406 140.726562 523.875 142.636719 528.136719 144.652344 C 532.398438 146.667969 536.605469 148.785156 540.761719 151.007812 C 544.917969 153.230469 549.019531 155.550781 553.0625 157.972656 C 557.105469 160.398438 561.085938 162.917969 565.003906 165.535156 C 568.921875 168.15625 572.777344 170.867188 576.5625 173.675781 C 580.347656 176.484375 584.0625 179.382812 587.707031 182.371094 C 591.347656 185.363281 594.917969 188.441406 598.410156 191.605469 C 601.902344 194.769531 605.3125 198.019531 608.648438 201.351562 C 611.980469 204.6875 615.230469 208.097656 618.394531 211.589844 C 621.558594 215.082031 624.636719 218.652344 627.625 222.292969 C 630.617188 225.9375 633.515625 229.652344 636.324219 233.4375 C 639.132812 237.222656 641.84375 241.078125 644.464844 244.996094 C 647.082031 248.914062 649.601562 252.894531 652.027344 256.9375 C 654.449219 260.980469 656.769531 265.082031 658.992188 269.238281 C 661.214844 273.394531 663.332031 277.601562 665.347656 281.863281 C 667.363281 286.125 669.273438 290.433594 671.078125 294.789062 C 672.882812 299.140625 674.578125 303.539062 676.164062 307.976562 C 677.753906 312.414062 679.230469 316.886719 680.597656 321.398438 C 681.96875 325.910156 683.222656 330.449219 684.367188 335.023438 C 685.515625 339.59375 686.546875 344.191406 687.464844 348.8125 C 688.386719 353.4375 689.191406 358.078125 689.882812 362.742188 C 690.574219 367.402344 691.152344 372.082031 691.613281 376.769531 C 692.074219 381.460938 692.421875 386.160156 692.652344 390.867188 C 692.882812 395.578125 693 400.285156 693 405 C 692.996094 409.710938 692.875 414.421875 692.636719 419.125 C 692.402344 423.832031 692.050781 428.53125 691.582031 433.21875 C 691.117188 437.90625 690.535156 442.582031 689.839844 447.242188 C 689.144531 451.902344 688.332031 456.542969 687.410156 461.164062 C 686.484375 465.78125 685.449219 470.378906 684.300781 474.949219 C 683.152344 479.515625 681.894531 484.054688 680.523438 488.5625 C 679.152344 493.070312 677.671875 497.542969 676.078125 501.980469 C 674.488281 506.414062 672.792969 510.808594 670.984375 515.160156 C 669.179688 519.511719 667.269531 523.816406 665.253906 528.074219 C 663.234375 532.332031 661.117188 536.539062 658.894531 540.695312 C 656.667969 544.847656 654.347656 548.945312 651.921875 552.988281 C 649.5 557.027344 646.976562 561.007812 644.359375 564.921875 C 641.738281 568.839844 639.027344 572.691406 636.21875 576.476562 C 633.410156 580.257812 630.511719 583.972656 627.523438 587.613281 C 624.53125 591.253906 621.457031 594.820312 618.292969 598.3125 C 615.125 601.804688 611.878906 605.214844 608.546875 608.546875 C 605.214844 611.878906 601.804688 615.125 598.3125 618.292969 C 594.820312 621.457031 591.253906 624.53125 587.613281 627.523438 C 583.972656 630.511719 580.257812 633.410156 576.476562 636.21875 C 572.691406 639.027344 568.839844 641.738281 564.921875 644.359375 C 561.007812 646.976562 557.027344 649.5 552.988281 651.921875 C 548.945312 654.347656 544.847656 656.667969 540.695312 658.894531 C 536.539062 661.117188 532.332031 663.234375 528.074219 665.253906 C 523.816406 667.269531 519.511719 669.179688 515.160156 670.984375 C 510.808594 672.792969 506.414062 674.488281 501.980469 676.078125 C 497.542969 677.671875 493.070312 679.152344 488.5625 680.523438 C 484.054688 681.894531 479.515625 683.152344 474.949219 684.300781 C 470.378906 685.449219 465.78125 686.484375 461.164062 687.410156 C 456.542969 688.332031 451.902344 689.144531 447.242188 689.839844 C 442.582031 690.535156 437.90625 691.117188 433.21875 691.582031 C 428.53125 692.050781 423.832031 692.402344 419.125 692.636719 C 414.421875 692.875 409.710938 692.996094 405 693 Z M 405 693 " fill-opacity="1" fill-rule="nonzero"/></svg>