<svg xmlns="http://www.w3.org/2000/svg" xmlns:xlink="http://www.w3.org/1999/xlink" width="1080" zoomAndPan="magnify" viewBox="0 0 810 809.999993" height="1080" preserveAspectRatio="xMidYMid meet" version="1.0"><defs><clipPath id="13fc34a482"><path d="M 312 231.660156 L 497 231.660156 L 497 417 L 312 417 Z M 312 231.660156 " clip-rule="nonzero"/></clipPath><clipPath id="edeadefe64"><path d="M 265 428 L 544 428 L 544 578.160156 L 265 578.160156 Z M 265 428 " clip-rule="nonzero"/></clipPath></defs><path fill="#ffffff" d="M 612.335938 416.546875 C 567.289062 416.546875 531.480469 380.742188 531.480469 335.691406 C 531.480469 290.644531 567.289062 254.835938 612.335938 254.835938 C 657.386719 254.835938 693.191406 290.644531 693.191406 335.691406 C 693.191406 380.742188 657.386719 416.546875 612.335938 416.546875 Z M 612.335938 277.9375 C 579.996094 277.9375 554.582031 303.351562 554.582031 335.691406 C 554.582031 368.035156 579.996094 393.445312 612.335938 393.445312 C 644.679688 393.445312 670.089844 368.035156 670.089844 335.691406 C 670.089844 303.351562 644.679688 277.9375 612.335938 277.9375 Z M 612.335938 277.9375 " fill-opacity="1" fill-rule="nonzero"/><path fill="#ffffff" d="M 727.84375 555.15625 L 590.390625 555.15625 C 583.460938 555.15625 578.839844 550.539062 578.839844 543.605469 C 578.839844 536.675781 583.460938 532.054688 590.390625 532.054688 L 704.742188 532.054688 C 698.96875 487.007812 659.695312 451.199219 613.492188 451.199219 C 598.476562 451.199219 584.613281 454.667969 571.910156 461.597656 C 566.132812 463.90625 559.203125 462.75 556.894531 456.976562 C 554.582031 451.199219 555.738281 444.269531 561.511719 441.960938 C 577.683594 433.875 595.011719 429.253906 613.492188 429.253906 C 677.019531 429.253906 729 481.234375 729 544.761719 L 729 555.15625 Z M 727.84375 555.15625 " fill-opacity="1" fill-rule="nonzero"/><path fill="#ffffff" d="M 196.507812 416.546875 C 151.460938 416.546875 115.652344 380.742188 115.652344 335.691406 C 115.652344 290.644531 151.460938 254.835938 196.507812 254.835938 C 241.554688 254.835938 277.363281 290.644531 277.363281 335.691406 C 277.363281 380.742188 241.554688 416.546875 196.507812 416.546875 Z M 196.507812 277.9375 C 164.164062 277.9375 138.753906 303.351562 138.753906 335.691406 C 138.753906 368.035156 164.164062 393.445312 196.507812 393.445312 C 228.851562 393.445312 254.261719 368.035156 254.261719 335.691406 C 254.261719 303.351562 228.851562 277.9375 196.507812 277.9375 Z M 196.507812 277.9375 " fill-opacity="1" fill-rule="nonzero"/><path fill="#ffffff" d="M 218.453125 555.15625 L 81 555.15625 L 81 543.605469 C 81 480.078125 132.980469 428.097656 196.507812 428.097656 C 214.988281 428.097656 232.316406 431.566406 247.332031 439.648438 C 253.105469 441.960938 255.417969 448.890625 253.105469 454.667969 C 250.796875 460.441406 243.867188 462.75 238.089844 460.441406 C 224.230469 454.667969 210.367188 451.199219 196.507812 451.199219 C 149.148438 451.199219 111.03125 487.007812 105.257812 532.054688 L 219.609375 532.054688 C 226.539062 532.054688 231.160156 536.675781 231.160156 543.605469 C 231.160156 550.539062 225.386719 555.15625 218.453125 555.15625 Z M 218.453125 555.15625 " fill-opacity="1" fill-rule="nonzero"/><g clip-path="url(#13fc34a482)"><path fill="#ffffff" d="M 404.421875 416.546875 C 353.597656 416.546875 312.015625 374.964844 312.015625 324.140625 C 312.015625 273.320312 353.597656 231.734375 404.421875 231.734375 C 455.246094 231.734375 496.828125 273.320312 496.828125 324.140625 C 496.828125 374.964844 455.246094 416.546875 404.421875 416.546875 Z M 404.421875 254.835938 C 366.304688 254.835938 335.117188 286.023438 335.117188 324.140625 C 335.117188 362.261719 366.304688 393.445312 404.421875 393.445312 C 442.539062 393.445312 473.726562 362.261719 473.726562 324.140625 C 473.726562 286.023438 442.539062 254.835938 404.421875 254.835938 Z M 404.421875 254.835938 " fill-opacity="1" fill-rule="nonzero"/></g><g clip-path="url(#edeadefe64)"><path fill="#ffffff" d="M 543.03125 578.261719 L 335.117188 578.261719 C 328.1875 578.261719 323.566406 573.640625 323.566406 566.707031 C 323.566406 559.777344 328.1875 555.15625 335.117188 555.15625 L 519.929688 555.15625 C 514.15625 497.402344 464.488281 451.199219 404.421875 451.199219 C 340.894531 451.199219 288.914062 503.179688 288.914062 566.707031 C 288.914062 573.640625 284.292969 578.261719 277.363281 578.261719 C 270.433594 578.261719 265.8125 573.640625 265.8125 566.707031 C 265.8125 490.472656 328.1875 428.097656 404.421875 428.097656 C 480.65625 428.097656 543.03125 490.472656 543.03125 566.707031 Z M 543.03125 578.261719 " fill-opacity="1" fill-rule="nonzero"/></g></svg>